<?xml version="1.0" standalone="no"?>
<!DOCTYPE svg PUBLIC "-//W3C//DTD SVG 20010904//EN"
 "http://www.w3.org/TR/2001/REC-SVG-20010904/DTD/svg10.dtd">
<svg version="1.0" xmlns="http://www.w3.org/2000/svg" width="449.000000pt" height="449.000000pt" viewBox="0 0 449.000000 449.000000" preserveAspectRatio="xMidYMid meet">
<metadata>
Created by potrace 1.14, written by Peter Selinger 2001-2017
</metadata>
<g transform="translate(0.000000,449.000000) scale(0.100000,-0.100000)" fill="#000000" stroke="none">
<path d="M1126 4448 c-3 -7 -7 -53 -10 -103 -6 -107 -33 -195 -86 -286 -46
-77 -109 -138 -244 -233 -152 -109 -195 -170 -196 -282 0 -75 11 -86 88 -92
44 -2 65 1 92 17 43 26 248 131 254 131 8 0 16 -79 41 -435 14 -192 32 -438
40 -545 8 -107 31 -409 50 -670 46 -629 72 -981 91 -1230 8 -113 17 -213 20
-223 7 -22 66 -47 114 -47 47 0 85 29 101 77 24 73 1 768 -53 1578 -19 293
-22 430 -22 992 l-1 652 29 30 c40 42 70 49 223 59 250 16 607 -10 873 -64
347 -69 521 -146 683 -302 143 -139 179 -268 143 -507 -27 -175 -67 -295 -160
-485 -216 -438 -484 -784 -1160 -1500 -128 -135 -336 -370 -440 -495 -114
-138 -180 -251 -192 -331 -13 -86 39 -154 119 -154 31 0 63 30 413 382 486
490 674 701 926 1039 218 293 373 541 517 829 117 236 184 423 247 690 127
543 -214 925 -971 1089 -321 69 -647 101 -1036 101 l-227 0 -31 30 c-18 19
-33 45 -36 68 -21 133 -30 166 -49 188 -30 36 -142 59 -150 32z"></path>
</g>
</svg>
